<svg xmlns="http://www.w3.org/2000/svg" width="24" height="24" viewBox="0 0 24 24">
  <path id="account_circle_FILL0_wght300_GRAD0_opsz24_1_" data-name="account_circle_FILL0_wght300_GRAD0_opsz24 (1)" d="M104.451-841.314a13.773,13.773,0,0,1,3.509-1.887,11.7,11.7,0,0,1,4.041-.692,11.7,11.7,0,0,1,4.041.692,13.773,13.773,0,0,1,3.509,1.887,9.955,9.955,0,0,0,1.867-3,9.743,9.743,0,0,0,.689-3.687,9.741,9.741,0,0,0-2.953-7.153A9.741,9.741,0,0,0,112-858.1a9.741,9.741,0,0,0-7.153,2.953A9.741,9.741,0,0,0,101.9-848a9.743,9.743,0,0,0,.689,3.687A9.955,9.955,0,0,0,104.451-841.314Zm7.55-5.738a3.967,3.967,0,0,1-2.918-1.187,3.965,3.965,0,0,1-1.188-2.917,3.967,3.967,0,0,1,1.187-2.918A3.965,3.965,0,0,1,112-855.262a3.967,3.967,0,0,1,2.918,1.188,3.965,3.965,0,0,1,1.188,2.917,3.967,3.967,0,0,1-1.187,2.918A3.965,3.965,0,0,1,112-847.052ZM112-836a11.76,11.76,0,0,1-4.689-.94,12.05,12.05,0,0,1-3.81-2.56,12.053,12.053,0,0,1-2.56-3.81A11.76,11.76,0,0,1,100-848a11.761,11.761,0,0,1,.94-4.69,12.052,12.052,0,0,1,2.56-3.81,12.052,12.052,0,0,1,3.81-2.56A11.76,11.76,0,0,1,112-860a11.76,11.76,0,0,1,4.689.94,12.052,12.052,0,0,1,3.81,2.56,12.052,12.052,0,0,1,2.56,3.81A11.761,11.761,0,0,1,124-848a11.76,11.76,0,0,1-.94,4.689,12.052,12.052,0,0,1-2.56,3.81,12.05,12.05,0,0,1-3.81,2.56A11.76,11.76,0,0,1,112-836Zm0-1.895a10,10,0,0,0,3.3-.55,9.354,9.354,0,0,0,2.819-1.539,9.606,9.606,0,0,0-2.783-1.484A10.208,10.208,0,0,0,112-842a10.372,10.372,0,0,0-3.34.526,9.158,9.158,0,0,0-2.777,1.49,9.354,9.354,0,0,0,2.819,1.539A10,10,0,0,0,112-837.894Zm0-11.053a2.14,2.14,0,0,0,1.577-.634,2.14,2.14,0,0,0,.634-1.576,2.14,2.14,0,0,0-.634-1.577,2.14,2.14,0,0,0-1.577-.634,2.14,2.14,0,0,0-1.577.634,2.14,2.14,0,0,0-.634,1.577,2.14,2.14,0,0,0,.634,1.576A2.14,2.14,0,0,0,112-848.946ZM112-851.157ZM112-839.946Z" transform="translate(-100.001 859.999)"/>
</svg>
