<svg xmlns="http://www.w3.org/2000/svg" width="30" height="30" viewBox="0 0 30 30">
  <path id="expand_circle_down_FILL0_wght300_GRAD0_opsz24" d="M115-843.371l-4.038-4.038a1.093,1.093,0,0,0-.81-.328,1.188,1.188,0,0,0-.838.328,1.1,1.1,0,0,0-.36.844,1.179,1.179,0,0,0,.36.844L114-841.033a1.369,1.369,0,0,0,1,.428,1.369,1.369,0,0,0,1-.428l4.713-4.713a1.121,1.121,0,0,0,.348-.832,1.131,1.131,0,0,0-.372-.832,1.2,1.2,0,0,0-.832-.333,1.122,1.122,0,0,0-.832.348ZM115-830a14.612,14.612,0,0,1-5.85-1.181,15.152,15.152,0,0,1-4.764-3.206,15.145,15.145,0,0,1-3.207-4.762A14.6,14.6,0,0,1,100-845a14.612,14.612,0,0,1,1.181-5.85,15.152,15.152,0,0,1,3.206-4.764,15.145,15.145,0,0,1,4.762-3.207A14.6,14.6,0,0,1,115-860a14.611,14.611,0,0,1,5.85,1.181,15.152,15.152,0,0,1,4.764,3.206,15.146,15.146,0,0,1,3.207,4.762A14.6,14.6,0,0,1,130-845a14.612,14.612,0,0,1-1.181,5.85,15.151,15.151,0,0,1-3.206,4.764,15.145,15.145,0,0,1-4.762,3.207A14.6,14.6,0,0,1,115-830Zm0-2.368a12.191,12.191,0,0,0,8.961-3.671A12.191,12.191,0,0,0,127.633-845a12.191,12.191,0,0,0-3.671-8.961A12.191,12.191,0,0,0,115-857.631a12.191,12.191,0,0,0-8.961,3.671A12.191,12.191,0,0,0,102.369-845a12.191,12.191,0,0,0,3.671,8.961A12.191,12.191,0,0,0,115-832.367ZM115-845Z" transform="translate(859.999 130.001) rotate(-90)"/>
</svg>
