<svg xmlns="http://www.w3.org/2000/svg" width="155" height="60" viewBox="0 0 155 60">
  <path id="Ogilvy" d="M66.1,70.1c0,10.3-5.2,18.5-13.2,18.5-7.7,0-13.3-7.8-13.3-18.6,0-10.3,5.2-18.5,13.1-18.5a11.284,11.284,0,0,1,8.387,3.7c3.03,3.071,5.013,8.471,5.013,14.9m8.7-.3C74.8,58.2,65.8,49,53,49c-11.9-.1-22,8.3-22,21.2C31,81.8,40,91,52.8,91c11.9.1,22-8.3,22-21.2m19,4.2c0,4.1-1.9,7.6-4.8,7.6s-5.1-3.1-5.1-7.8c0-4,1.9-7.6,4.9-7.6,2.8,0,5,3.1,5,7.8m20.1-16c0-2.9-2.7-5.1-7.6-5.1-6.7,0-11.9,4.3-11.9,10.9,0,.5.1.9.1,1.3A14.587,14.587,0,0,0,89,64c-5.3,0-11.7,3.2-11.7,10.2a9.055,9.055,0,0,0,5,7.9c-4.7.6-7.4,3.2-7.4,7.1S78.1,96,84,95.3l8.6-1c4.3-.5,5.7,1,5.7,3.2,0,3.8-3.7,6.9-9.5,6.9-4.7,0-6.4-1.6-6.4-4,0-.4.1-.8.1-1.2a2.191,2.191,0,0,0-2.1-2.4h-.2a2.721,2.721,0,0,0-2.7,2.5h0v.3c0,3.8,3.7,7.3,11.3,7.3,8.6,0,14-5.5,14-11.8,0-5-4.1-7.8-9.7-7.1l-9.8,1.2c-3.2.4-4.2-.6-4.2-2.3,0-1.9,2.1-3.4,9.5-3.4h.1c5.4,0,11.7-3.2,11.7-10.2A8.237,8.237,0,0,0,98,67.4a7.264,7.264,0,0,1-.7-3.6c0-5.1,3.5-8,7.2-8,1.5,0,2,.2,2,1.3V58a3.615,3.615,0,0,0,3.9,3.4,3.4,3.4,0,0,0,3.5-3.4m18.3,30.6-2.9-.3a.808.808,0,0,1-.7-.9V47l-10.4,2.6v1.2l3,.9a1.2,1.2,0,0,1,.7,1V87.1a1.2,1.2,0,0,1-1.2,1.1h-.1l-2.6.1-2.8-.1a1.2,1.2,0,0,1-1.3-1V63.9l-10.4,2.6v1.2l2.9.9a1.2,1.2,0,0,1,.7,1V87.3a.961.961,0,0,1-.7.9l-2.4.3v1.9h28.3l-.1-1.8ZM186,66.7V64.9H175.9v1.8l2.4.5c.8.2,1.1.8.5,2.1l-5.4,13c-.2.5-.5.5-.7,0l-5.1-13c-.5-1.3-.2-1.9.6-2.1l2.4-.5V64.9h-21v1.8l2.3.5c.8.2,1.1.8.6,2.1L147.3,83c-.2.5-.5.5-.7,0l-5.3-13.7c-.5-1.3-.2-1.9.6-2.1l2.4-.5V64.9H131v1.8l1.3.3a2.293,2.293,0,0,1,1.8,1.5l9,21.9h4.1l9-21.9c.5-1.2,1-1.6,2-1.6h.4a1.832,1.832,0,0,1,1.8,1.4l9.4,22.8-2.5,6c-1.6,4-2.9,4.7-4.4,4.7-.6,0-1.4-.1-2.1-.1a2.7,2.7,0,0,0-2.9,2.5h0v.1c0,1.6,1.3,2.7,3.4,2.7,2.9,0,5.8-2.3,8.3-7.9l12.9-29.8a3.438,3.438,0,0,1,2.6-2.2Z" transform="translate(-31 -47)" fill="#fff" fill-rule="evenodd"/>
</svg>
