<?xml version="1.0" standalone="no"?>
<!DOCTYPE svg PUBLIC "-//W3C//DTD SVG 20010904//EN"
 "http://www.w3.org/TR/2001/REC-SVG-20010904/DTD/svg10.dtd">
<svg version="1.0" xmlns="http://www.w3.org/2000/svg"
 width="206.000000pt" height="169.000000pt" viewBox="0 0 206.000000 169.000000"
 preserveAspectRatio="xMidYMid meet">
<metadata>
Created by potrace 1.10, written by Peter Selinger 2001-2011
</metadata>
<g transform="translate(0.000000,169.000000) scale(0.100000,-0.100000)"
fill="#000000" stroke="none">
<path d="M1000 1631 c-100 -31 -145 -81 -277 -311 -34 -58 -118 -204 -188
-325 -214 -369 -258 -450 -279 -511 -29 -86 -18 -153 38 -232 38 -54 95 -89
166 -102 77 -15 1150 -14 1218 1 161 34 251 202 189 352 -11 29 -28 66 -38 82
-21 38 -215 377 -345 600 -54 94 -105 184 -114 200 -22 42 -48 81 -93 142 -66
89 -183 132 -277 104z m156 -50 c75 -34 84 -48 573 -896 97 -167 113 -205 118
-270 6 -71 -11 -116 -59 -164 -68 -68 -40 -66 -702 -69 -670 -3 -670 -3 -738
63 -72 71 -87 179 -38 276 24 48 498 870 536 931 40 63 87 110 129 129 51 24
129 24 181 0z"/>
<path d="M1006 1429 c-30 -35 -75 -111 -348 -584 -264 -455 -257 -441 -214
-492 l24 -28 595 0 595 0 26 24 c31 30 33 58 5 114 -45 91 -515 900 -549 945
-29 39 -42 48 -72 50 -29 3 -40 -2 -62 -29z m74 -19 c29 -15 60 -66 252 -400
96 -168 200 -348 230 -400 89 -153 107 -192 98 -216 -5 -12 -16 -24 -26 -28
-28 -11 -1109 -7 -1138 4 -49 18 -40 48 92 275 42 72 85 147 96 167 99 178
317 546 339 573 32 39 31 39 57 25z"/>
<path d="M1268 907 c-15 -7 -81 -65 -148 -129 -66 -64 -124 -119 -129 -122 -5
-4 -35 16 -67 44 -49 43 -63 50 -100 50 -34 0 -48 -6 -73 -31 -67 -66 -30
-143 137 -285 66 -56 96 -65 139 -41 32 18 310 285 349 336 56 72 42 146 -32
177 -39 17 -41 17 -76 1z m87 -52 c14 -13 25 -34 25 -46 0 -16 -55 -78 -182
-206 -158 -159 -186 -183 -213 -183 -26 0 -47 17 -134 105 -93 94 -103 107
-97 132 4 16 16 36 28 46 38 32 66 22 137 -48 l65 -65 146 145 c160 158 178
168 225 120z"/>
</g>
</svg>
