<svg xmlns="http://www.w3.org/2000/svg" width="35.944" height="32.466" viewBox="0 0 35.944 32.466">
  <g id="Warning_Triangle_Check" data-name="Warning / Triangle_Check" transform="translate(-2.085 -2.98)">
    <path id="Vector" d="M25.766,21.126l-7.611,7.611-3.806-3.806m-8.793.38c-1.731,3-2.6,4.5-2.466,5.726a3.806,3.806,0,0,0,1.548,2.681c1,.727,2.73.727,6.188.727H29.289c3.459,0,5.188,0,6.188-.727a3.807,3.807,0,0,0,1.549-2.681c.129-1.23-.735-2.729-2.466-5.726L25.331,9.328c-1.73-3-2.6-4.5-3.726-5a3.807,3.807,0,0,0-3.1,0c-1.129.5-1.994,2-3.723,5Z" transform="translate(0 0)" fill="none" stroke="#000" stroke-linecap="round" stroke-linejoin="round" stroke-width="2"/>
  </g>
</svg>
